<svg id="Layer_1" data-name="Layer 1" xmlns="http://www.w3.org/2000/svg" xmlns:xlink="http://www.w3.org/1999/xlink" viewBox="0 0 10 13"><defs><style>.cls-1{fill:none;}.cls-2{clip-path:url(#clip-path);}.cls-3{clip-path:url(#clip-path-2);}.cls-4{fill:#2099bb;}.cls-5{clip-path:url(#clip-path-3);}</style><clipPath id="clip-path"><path class="cls-1" d="M5.3,4,9.38,8.14a.43.43,0,0,1,0,.6L9.13,9a.42.42,0,0,1-.6,0L5,5.4,1.47,9a.42.42,0,0,1-.6,0L.62,8.74a.42.42,0,0,1,0-.59L4.7,4A.43.43,0,0,1,5.3,4Z"/></clipPath><clipPath id="clip-path-2"><rect class="cls-1" x="-194.5" y="-720.12" width="4990" height="4412"/></clipPath><clipPath id="clip-path-3"><path class="cls-1" d="M-6.7,9l4.08-4.14a.43.43,0,0,0,0-.6L-2.87,4a.42.42,0,0,0-.6,0L-7,7.6-10.53,4a.42.42,0,0,0-.6,0l-.25.25a.42.42,0,0,0,0,.59L-7.3,9A.43.43,0,0,0-6.7,9Z"/></clipPath></defs><g class="cls-2"><g class="cls-3"><rect class="cls-4" width="10" height="13"/></g></g></svg>