<svg id="Layer_1" data-name="Layer 1" xmlns="http://www.w3.org/2000/svg" xmlns:xlink="http://www.w3.org/1999/xlink" viewBox="0 0 10 13"><defs><style>.cls-1{fill:none;}.cls-2{clip-path:url(#clip-path);}.cls-3{clip-path:url(#clip-path-2);}.cls-4{clip-path:url(#clip-path-3);}.cls-5{fill:#2099bb;}</style><clipPath id="clip-path"><path class="cls-1" d="M17.3,4l4.08,4.14a.43.43,0,0,1,0,.6L21.13,9a.42.42,0,0,1-.6,0L17,5.4,13.47,9a.42.42,0,0,1-.6,0l-.25-.25a.42.42,0,0,1,0-.59L16.7,4A.43.43,0,0,1,17.3,4Z"/></clipPath><clipPath id="clip-path-2"><path class="cls-1" d="M5.3,9,9.38,4.86a.43.43,0,0,0,0-.6L9.13,4a.42.42,0,0,0-.6,0L5,7.6,1.47,4a.42.42,0,0,0-.6,0l-.25.25a.42.42,0,0,0,0,.59L4.7,9A.43.43,0,0,0,5.3,9Z"/></clipPath><clipPath id="clip-path-3"><rect class="cls-1" x="-194.5" y="-720.12" width="4990" height="4412"/></clipPath></defs><g class="cls-3"><g class="cls-4"><rect class="cls-5" width="10" height="13"/></g></g></svg>