<svg id="Layer_1" data-name="Layer 1" xmlns="http://www.w3.org/2000/svg" xmlns:xlink="http://www.w3.org/1999/xlink" viewBox="0 0 14 12.25"><defs><style>.cls-1{fill:none;}.cls-2{clip-path:url(#clip-path);}.cls-3{clip-path:url(#clip-path-2);}.cls-4{fill:#2099bb;}</style><clipPath id="clip-path"><path class="cls-1" d="M10.5,6.34a.66.66,0,1,0-.65-.65A.65.65,0,0,0,10.5,6.34ZM7,6.34a.66.66,0,1,0-.65-.65A.65.65,0,0,0,7,6.34Zm-3.5,0a.66.66,0,1,0-.65-.65A.65.65,0,0,0,3.5,6.34Zm-2.35,5a7.2,7.2,0,0,0,1.12-1.9l.19-.51-.37-.4A4.13,4.13,0,0,1,.88,5.69C.88,3,3.62.88,7,.88S13.13,3,13.13,5.69,10.38,10.5,7,10.5a7.58,7.58,0,0,1-2.27-.35L4.31,10,4,10.27A5.79,5.79,0,0,1,1.15,11.35Zm-.49.9A6.56,6.56,0,0,0,4.46,11,8.39,8.39,0,0,0,7,11.37c3.87,0,7-2.54,7-5.68S10.87,0,7,0,0,2.55,0,5.69A5,5,0,0,0,1.45,9.14a7,7,0,0,1-1.27,2,.66.66,0,0,0-.13.71A.68.68,0,0,0,.66,12.25Z"/></clipPath><clipPath id="clip-path-2"><rect class="cls-1" x="-416" y="-3690.63" width="4990" height="4412"/></clipPath></defs><g class="cls-2"><g class="cls-3"><rect class="cls-4" x="-5" y="-5" width="24" height="22.25"/></g></g><g class="cls-2"><g class="cls-3"><rect class="cls-4" x="-5" y="-5" width="24" height="22.25"/></g></g></svg>