<svg id="Layer_1" data-name="Layer 1" xmlns="http://www.w3.org/2000/svg" xmlns:xlink="http://www.w3.org/1999/xlink" viewBox="0 0 14 12.25"><defs><style>.cls-1{fill:none;}.cls-2{clip-path:url(#clip-path);}.cls-3{clip-path:url(#clip-path-2);}.cls-4{clip-path:url(#clip-path-4);}.cls-5{clip-path:url(#clip-path-5);}.cls-6{clip-path:url(#clip-path-6);}.cls-7{clip-path:url(#clip-path-7);}.cls-8{fill:#616161;}</style><clipPath id="clip-path"><path class="cls-1" d="M-231.92,115.4l5.77-5.77a.32.32,0,0,0,0-.46l-.19-.2a.33.33,0,0,0-.47,0l-5.34,5.35L-237.5,109a.32.32,0,0,0-.46,0l-.2.2a.34.34,0,0,0,0,.46l5.77,5.77A.33.33,0,0,0-231.92,115.4Z"/></clipPath><clipPath id="clip-path-2"><path class="cls-1" d="M-271.78,129.94a.65.65,0,0,0,.66-.66.65.65,0,0,0-.66-.65.65.65,0,0,0-.65.65A.65.65,0,0,0-271.78,129.94Zm-3.5,0a.65.65,0,0,0,.66-.66.65.65,0,0,0-.66-.65.65.65,0,0,0-.65.65A.65.65,0,0,0-275.28,129.94Zm-3.5,0a.65.65,0,0,0,.66-.66.65.65,0,0,0-.66-.65.65.65,0,0,0-.65.65A.65.65,0,0,0-278.78,129.94Zm-2.35,5a7.37,7.37,0,0,0,1.12-1.9l.19-.52-.37-.39a4.16,4.16,0,0,1-1.21-2.86c0-2.65,2.75-4.81,6.12-4.81s6.13,2.16,6.13,4.81-2.75,4.82-6.13,4.82a7.58,7.58,0,0,1-2.27-.35l-.42-.14-.35.26A6,6,0,0,1-281.13,135Zm-.49.9a6.63,6.63,0,0,0,3.8-1.27,8.44,8.44,0,0,0,2.54.39c3.87,0,7-2.54,7-5.69s-3.13-5.68-7-5.68-7,2.54-7,5.68a5.06,5.06,0,0,0,1.45,3.46,6.93,6.93,0,0,1-1.27,2,.64.64,0,0,0-.12.71A.66.66,0,0,0-281.62,135.85Z"/></clipPath><clipPath id="clip-path-4"><path class="cls-1" d="M-273.55,130.47a.66.66,0,0,0,.66-.66.66.66,0,0,0-.66-.66.66.66,0,0,0-.65.66A.66.66,0,0,0-273.55,130.47Zm-3.5,0a.66.66,0,0,0,.66-.66.66.66,0,0,0-.66-.66.66.66,0,0,0-.65.66A.66.66,0,0,0-277,130.47Zm-3.5,0a.66.66,0,0,0,.66-.66.66.66,0,0,0-.66-.66.66.66,0,0,0-.65.66A.66.66,0,0,0-280.55,130.47Zm-2.35,5a7.45,7.45,0,0,0,1.12-1.91l.19-.51-.37-.4a4.12,4.12,0,0,1-1.21-2.85c0-2.65,2.75-4.81,6.12-4.81s6.13,2.16,6.13,4.81-2.75,4.81-6.13,4.81a7.27,7.27,0,0,1-2.27-.35l-.42-.13-.35.25A5.89,5.89,0,0,1-282.9,135.48Zm-.49.89a6.64,6.64,0,0,0,3.8-1.26,8.44,8.44,0,0,0,2.54.39c3.87,0,7-2.55,7-5.69s-3.13-5.69-7-5.69-7,2.55-7,5.69a5,5,0,0,0,1.45,3.45,6.89,6.89,0,0,1-1.27,2,.64.64,0,0,0-.12.71A.65.65,0,0,0-283.39,136.37Z"/></clipPath><clipPath id="clip-path-5"><path class="cls-1" d="M41.8,24.6a.66.66,0,1,0-.66-.66A.66.66,0,0,0,41.8,24.6Zm-3.5,0a.66.66,0,1,0-.66-.66A.66.66,0,0,0,38.3,24.6Zm-3.5,0a.66.66,0,1,0-.66-.66A.66.66,0,0,0,34.8,24.6Zm-2.35,5a7.21,7.21,0,0,0,1.11-1.9l.2-.51-.38-.4a4.14,4.14,0,0,1-1.2-2.86c0-2.65,2.74-4.81,6.12-4.81s6.13,2.16,6.13,4.81-2.75,4.82-6.13,4.82A7.58,7.58,0,0,1,36,28.41l-.42-.13-.36.25A6,6,0,0,1,32.45,29.61Zm-.49.9a6.66,6.66,0,0,0,3.8-1.27,8.39,8.39,0,0,0,2.54.39c3.87,0,7-2.54,7-5.69s-3.13-5.68-7-5.68-7,2.54-7,5.68a5,5,0,0,0,1.45,3.46,7,7,0,0,1-1.27,2A.66.66,0,0,0,32,30.51Z"/></clipPath><clipPath id="clip-path-6"><path class="cls-1" d="M10.5,6.34a.66.66,0,1,0-.65-.65A.65.65,0,0,0,10.5,6.34ZM7,6.34a.66.66,0,1,0-.65-.65A.65.65,0,0,0,7,6.34Zm-3.5,0a.66.66,0,1,0-.65-.65A.65.65,0,0,0,3.5,6.34Zm-2.35,5a7.2,7.2,0,0,0,1.12-1.9l.19-.51-.37-.4A4.13,4.13,0,0,1,.88,5.69C.88,3,3.62.88,7,.88S13.13,3,13.13,5.69,10.38,10.5,7,10.5a7.58,7.58,0,0,1-2.27-.35L4.31,10,4,10.27A5.79,5.79,0,0,1,1.15,11.35Zm-.49.9A6.56,6.56,0,0,0,4.46,11,8.39,8.39,0,0,0,7,11.37c3.87,0,7-2.54,7-5.68S10.87,0,7,0,0,2.55,0,5.69A5,5,0,0,0,1.45,9.14a7,7,0,0,1-1.27,2,.66.66,0,0,0-.13.71A.68.68,0,0,0,.66,12.25Z"/></clipPath><clipPath id="clip-path-7"><rect class="cls-1" x="-284" y="-3675.63" width="4990" height="4412"/></clipPath></defs><g class="cls-6"><g class="cls-7"><rect class="cls-8" x="-5" y="-5" width="24" height="22.25"/></g></g></svg>