<svg xmlns="http://www.w3.org/2000/svg" xmlns:xlink="http://www.w3.org/1999/xlink" width="32" height="32" viewBox="0 0 32 32">
    <defs>
        <path id="prefix__a" d="M16.724 1.543l4.22 8.99 9.517 1.453c.437.067.737.475.67.912-.025.165-.102.318-.218.438L24 20.42l1.623 9.953c.071.436-.225.847-.661.918-.177.03-.359-.002-.516-.09L16 26.534l-8.446 4.67c-.387.214-.874.074-1.087-.313-.087-.157-.119-.339-.09-.516L8 20.421l-6.913-7.085c-.308-.316-.302-.823.014-1.131.12-.117.273-.193.438-.219l9.517-1.453 4.22-8.99c.188-.4.664-.572 1.064-.384.169.079.305.215.384.384z"/>
    </defs>
    <g fill="none" fill-rule="evenodd">
        <path fill="#CCC" d="M16.724 1.543l4.22 8.99 9.517 1.453c.437.067.737.475.67.912-.025.165-.102.318-.218.438L24 20.42l1.623 9.953c.071.436-.225.847-.661.918-.177.03-.359-.002-.516-.09L16 26.534l-8.446 4.67c-.387.214-.874.074-1.087-.313-.087-.157-.119-.339-.09-.516L8 20.421l-6.913-7.085c-.308-.316-.302-.823.014-1.131.12-.117.273-.193.438-.219l9.517-1.453 4.22-8.99c.188-.4.664-.572 1.064-.384.169.079.305.215.384.384z"/>
        <mask id="prefix__b" fill="#fff">
            <use xlink:href="#prefix__a"/>
        </mask>
        <use fill="#CCC" xlink:href="#prefix__a"/>
        <path fill="#FFC61C" d="M0 0H16V32H0z" mask="url(#prefix__b)"/>
    </g>
</svg>
