<svg xmlns="http://www.w3.org/2000/svg" width="20" height="20" viewBox="0 0 20 20">
    <path fill="#CCC" fill-rule="evenodd" d="M10.453.964l2.637 5.62 5.948.907c.273.042.46.297.419.57-.016.103-.064.2-.137.274L15 12.763l1.014 6.22c.045.273-.14.53-.413.575-.11.018-.224-.002-.322-.056L10 16.583l-5.279 2.919c-.242.133-.546.046-.68-.196-.054-.098-.073-.212-.055-.322L5 12.764.68 8.333c-.193-.197-.19-.513.008-.706.075-.073.17-.12.274-.137l5.948-.908L9.547.964c.118-.25.415-.357.665-.24.106.05.191.135.24.24z"/>
</svg>
